<svg xmlns="http://www.w3.org/2000/svg" viewBox="0 0 103 76" width="103" height="76">
	<style>
		tspan { white-space:pre }
		.shp0 { fill: #a4c58c } 
	</style>
	<g id="б6">
		<g id="02">
			<path id="new_vector_shape_done" fill-rule="evenodd" class="shp0" d="M26.17 1.71C31.16 1.63 36.35 1.76 40.44 2.78C42.47 3.29 44.26 3.32 46.11 3.96C47.45 4.42 48.9 5.04 50.11 5.71C50.7 6.04 51.14 6.72 51.87 6.88C52.21 6.4 52.74 6.23 53.24 5.91C55 4.76 57.24 4.05 59.49 3.37C60.35 3.11 61.04 3.21 61.94 2.98C63.74 2.51 66.05 2.45 68 2C68.52 2 69.04 2 69.56 2C70.79 1.74 72.44 2.11 73.86 1.81C74.75 1.62 76.48 1.61 77.38 1.81C78.79 2.12 80.45 1.73 81.68 2C82.2 2 82.72 2 83.24 2C84.25 2.23 85.45 2.13 86.56 2.39C89.13 3 91.84 3.32 94.09 4.15C96.77 5.14 99.47 6.16 100.93 8.35C101.78 9.62 101.61 11.87 101.61 14.01C101.61 17.98 101.61 21.95 101.61 25.92C101.61 35.74 101.61 45.57 101.61 55.4C101.61 61.09 101.75 67.05 101.51 72.57C100.96 73.02 100.68 73.64 99.85 73.84C99.23 74 98.52 73.57 98.09 73.45C96.92 73.12 95.61 73.13 94.48 72.87C93.21 72.58 91.84 72.73 90.67 72.48C90.18 72.48 89.69 72.48 89.2 72.48C88.35 72.29 87.2 72.5 86.17 72.28C84.3 71.88 81.81 71.99 79.72 71.99C77.53 71.99 74.91 71.55 72.88 71.99C72.03 72.17 70.88 71.93 70.15 72.09C69.3 72.09 68.45 72.09 67.6 72.09C66.47 72.33 64.88 72.24 63.79 72.48C62.65 72.54 61.51 72.61 60.37 72.67C58.39 73.12 56.19 72.99 54.12 73.45C53.37 73.62 52.11 74.07 51.19 73.84C48.68 73.24 45.65 73.25 43.08 72.67C41.69 72.36 40.17 72.56 38.87 72.28C37.47 72.22 36.07 72.15 34.67 72.09C34.15 72.09 33.63 72.09 33.11 72.09C31.81 71.81 29.34 71.77 28.03 71.99C27.33 72.11 26.12 71.83 25.39 71.99C23.14 72.02 20.89 72.05 18.65 72.09C17.65 72.3 16.38 72.03 15.23 72.28C12.58 72.85 9.5 72.66 7.02 73.26C5.25 73.69 3.07 74.27 2.13 72.87C1.52 71.95 1.84 69.51 1.84 68.08C1.84 64.02 1.84 59.95 1.84 55.88C1.84 40.53 1.84 25.17 1.84 9.81C2.17 9.52 2.19 8.93 2.42 8.54C2.76 8 3.38 7.26 3.89 6.88C6.77 4.72 10.34 3.83 14.44 2.78C17.13 2.1 20.14 2.42 22.95 1.81C23.87 1.61 25.45 2.16 26.17 1.71ZM24.51 5.91C24.12 6.14 23.38 5.89 22.85 6.01C21.66 6.27 20.39 6.01 19.13 6.3C14.3 7.41 9.04 7.51 6.04 10.4C6.04 24.65 6.04 38.9 6.04 53.15C6.04 57.02 6.04 60.89 6.04 64.77C6.04 65.59 5.86 68.75 6.04 69.06C6.14 69.13 6.13 69.12 6.33 69.16C7.04 68.7 8.22 68.98 9.17 68.77C10.71 68.43 12.67 68.53 14.25 68.18C14.87 68.18 15.49 68.18 16.11 68.18C17.2 67.95 18.64 68.26 19.92 67.99C21.9 67.56 24.49 67.79 26.76 67.79C35.05 67.79 42.37 68.47 49.53 69.35C49.94 68.09 49.62 65.32 49.62 63.79C49.62 59.69 49.62 55.59 49.62 51.49C49.62 37.86 49.62 24.22 49.62 10.59C49.55 10.48 49.55 10.43 49.53 10.2C43.47 6.35 34.45 5.98 24.51 5.91ZM53.83 69.35C55.62 69.24 57.77 68.96 59.49 68.57C60.85 68.27 62.35 68.46 63.6 68.18C64.15 68.18 64.71 68.18 65.26 68.18C66.73 67.86 68.72 68.12 70.24 67.79C72.82 67.79 75.39 67.79 77.96 67.79C84.86 67.79 91.37 68.4 97.41 69.16C97.41 49.54 97.41 29.92 97.41 10.3C97.05 10.07 96.8 9.63 96.43 9.42C95.42 8.86 94.38 8.68 93.21 8.25C88.53 6.52 82.53 5.91 76.2 5.91C71.76 5.91 67.32 5.94 63.7 6.88C63.03 7.06 62.6 6.89 61.94 7.08C58.96 7.92 55.77 8.53 53.83 10.4C53.83 30.05 53.83 49.7 53.83 69.35ZM15.91 23.48C21.64 23.48 27.38 23.48 33.11 23.48C36.31 23.48 39.18 22.72 39.17 26.11C38.69 26.64 38.56 27.32 37.8 27.58C36.59 27.99 33.9 27.67 32.42 27.67C28.45 27.67 24.48 27.67 20.5 27.67C17.22 27.67 14.32 28.44 14.35 24.94C14.67 24.6 14.82 24.04 15.23 23.77C15.46 23.62 15.72 23.65 15.91 23.48ZM65.94 23.48C71.68 23.48 77.41 23.48 83.14 23.48C85.08 23.48 88.29 23.01 88.81 24.45C89.94 25.6 88.65 27.58 87.25 27.58C86.65 27.95 83.16 27.67 82.17 27.67C77.8 27.67 73.43 27.67 69.07 27.67C67.05 27.67 64.77 27.93 64.58 26.11C63.64 24.95 65.44 23.91 65.94 23.48ZM15.91 35.97C21.64 35.97 27.38 35.97 33.11 35.97C36.31 35.97 39.18 35.21 39.17 38.61C38.69 39.14 38.56 39.8 37.8 40.07C36.62 40.49 33.88 40.17 32.42 40.17C28.45 40.17 24.48 40.17 20.5 40.17C17.23 40.17 14.32 40.92 14.35 37.44C14.65 37.12 14.77 36.62 15.13 36.36C15.37 36.19 15.7 36.17 15.91 35.97ZM66.04 35.97C71.77 35.97 77.51 35.97 83.24 35.97C86.21 35.97 89.18 35.38 89.2 38.41C88.72 39.04 88.62 39.76 87.83 40.07C86.8 40.48 84.07 40.17 82.75 40.17C78.78 40.17 74.8 40.17 70.83 40.17C68.48 40.17 64.81 40.75 64.58 38.61C64.24 38.19 64.49 37.67 64.58 37.14C64.81 36.96 64.85 36.64 65.06 36.46C65.34 36.23 65.76 36.19 66.04 35.97ZM15.91 48.47C21.15 48.47 26.4 48.47 31.64 48.47C33.63 48.47 35.62 48.47 37.6 48.47C38.43 48.72 38.65 49.38 39.17 49.93C39.18 51.35 38.81 52.21 37.8 52.57C36.56 53 33.66 52.66 32.13 52.66C28.35 52.66 24.57 52.66 20.8 52.66C19.4 52.66 16.85 52.96 15.71 52.57C15.02 52.32 14.8 51.68 14.35 51.2C14.3 49.09 14.88 49.38 15.91 48.47ZM66.04 48.47C71.77 48.47 77.51 48.47 83.24 48.47C86.22 48.47 89.18 47.86 89.2 50.91C88.73 51.52 88.63 52.28 87.83 52.57C86.68 52.98 83.98 52.66 82.56 52.66C78.65 52.66 74.74 52.66 70.83 52.66C68.48 52.66 64.81 53.24 64.58 51.1C64.24 50.68 64.49 50.16 64.58 49.64C64.79 49.47 64.78 49.23 64.97 49.05C65.24 48.77 65.73 48.71 66.04 48.47Z" />
		</g>
	</g>
</svg>