<svg xmlns="http://www.w3.org/2000/svg" viewBox="0 0 88 75" width="88" height="75">
	<style>
		tspan { white-space:pre }
		.shp0 { fill: #a4c58c } 
	</style>
	<g id="б6">
		<g id="03">
			<path id="new_vector_shape_done" fill-rule="evenodd" class="shp0" d="M43.51 1.06C44.9 1.03 45.55 1.67 46.44 2.14C47.95 2.92 49.47 3.62 50.93 4.38C54.95 6.48 59.02 8.25 63.04 10.34C64.57 11.13 66.16 11.87 67.73 12.68C68.2 12.93 68.79 13.4 69.29 13.56C74.57 13.56 79.84 13.56 85.11 13.56C85.35 13.84 85.68 13.93 85.89 14.25C86.39 14.87 86.19 16.49 86.19 17.57C86.19 20.43 86.19 23.3 86.19 26.16C86.19 37.32 86.19 48.49 86.19 59.66C86.19 62.78 86.19 65.91 86.19 69.03C86.19 70.51 86.39 72.04 85.5 72.64C84.69 73.28 82.15 72.94 80.82 72.94C76.72 72.94 72.61 72.94 68.51 72.94C52.56 72.94 36.61 72.94 20.66 72.94C16.04 72.94 11.41 72.94 6.79 72.94C5.18 72.94 2.62 73.28 2.01 72.25C1.48 71.36 1.81 69.03 1.81 67.76C1.81 63.99 1.81 60.21 1.81 56.43C1.81 42.5 1.81 28.57 1.81 14.64C2.17 14.26 2.51 13.92 2.89 13.56C8.16 13.56 13.43 13.56 18.71 13.56C19.07 13.44 19.53 13.06 19.88 12.88C21 12.3 22.12 11.78 23.2 11.22C26.51 9.49 29.89 7.94 33.16 6.24C35.57 4.98 38.02 3.86 40.39 2.62C41.36 2.12 42.75 1.8 43.51 1.06ZM43.8 4.38C43.09 5.21 40.87 5.88 39.8 6.43C36.65 8.07 33.38 9.67 30.23 11.32C29.49 11.7 26.11 13.08 25.84 13.56C37.94 13.56 50.06 13.56 62.16 13.56C62.16 13.5 62.16 13.43 62.16 13.37C60.98 13.21 58.65 11.68 57.57 11.12C54.33 9.43 51.05 8.02 47.81 6.34C46.76 5.79 45.03 4.54 43.8 4.38ZM4.94 16.69C4.94 34.39 4.94 52.11 4.94 69.81C30.98 69.81 57.02 69.81 83.06 69.81C83.06 52.11 83.06 34.39 83.06 16.69C57.02 16.69 30.98 16.69 4.94 16.69ZM61.58 26.06C67.61 25.99 70.59 28.48 72.61 32.41C73.43 34 74.16 36.93 73.49 39.34C73.13 40.65 72.62 42.01 71.93 43.05C71.59 43.57 70.8 44.07 70.56 44.62C70.56 50.57 70.56 56.53 70.56 62.49C70.2 62.86 69.86 63.2 69.49 63.56C68.94 63.56 68.48 63.57 68.12 63.37C67.8 63.01 67.47 62.65 67.14 62.29C66.17 61.35 65.19 60.4 64.21 59.46C63.74 58.99 63.37 58.2 62.55 58.09C60.83 59.85 59.1 61.61 57.38 63.37C57.02 63.57 56.56 63.56 56.01 63.56C55.85 63.38 55.84 63.51 55.62 63.37C55.32 63.18 55.18 62.74 54.94 62.49C54.94 56.53 54.94 50.57 54.94 44.62C52.79 43.1 50.86 37.65 52.2 33.87C53.06 31.45 54.49 29.39 56.4 28.02C57.3 27.37 58.52 26.84 59.62 26.45C60.22 26.24 61.09 26.39 61.58 26.06ZM15.39 29.19C25.09 29.19 34.79 29.19 44.49 29.19C44.72 29.44 45.2 29.57 45.37 29.87C45.82 30.67 45.44 31.65 44.88 32.02C44.07 32.66 39.57 32.31 38.04 32.31C32.05 32.31 26.06 32.31 20.07 32.31C17.37 32.31 14.31 33.15 14.31 30.26C14.49 30.12 14.46 29.94 14.61 29.77C14.81 29.53 15.18 29.44 15.39 29.19ZM61.77 29.19C61.06 29.38 60.34 29.58 59.62 29.77C57.72 30.71 56.11 32.31 55.33 34.36C53.98 37.9 55.79 40.9 57.48 42.66C57.64 42.89 57.8 43.12 57.96 43.35C58.4 43.61 59.32 43.9 60.02 44.23C60.79 44.59 62.37 45.14 63.73 44.81C66.64 44.1 68.55 42.88 69.78 40.52C72.45 35.4 68.61 30.6 64.7 29.38C63.86 29.12 62.83 29.18 61.77 29.19ZM15.39 35.44C21.96 35.44 28.54 35.44 35.11 35.44C36.23 35.81 36.54 37.58 35.5 38.27C34.79 38.84 31.63 38.56 30.33 38.56C26.49 38.56 22.65 38.56 18.8 38.56C16.39 38.56 14.3 39.04 14.31 36.51C14.67 36.14 15.01 35.8 15.39 35.44ZM15.39 41.69C21.96 41.69 28.54 41.69 35.11 41.69C35.27 41.87 35.28 41.74 35.5 41.88C35.8 42.07 35.94 42.51 36.19 42.76C36.22 43.67 36.03 44.18 35.5 44.52C34.79 45.09 31.63 44.81 30.33 44.81C26.49 44.81 22.65 44.81 18.8 44.81C16.39 44.81 14.3 45.29 14.31 42.76C14.56 42.51 14.7 42.07 15 41.88C15.22 41.74 15.23 41.87 15.39 41.69ZM58.06 46.96C58.06 50.67 58.06 54.38 58.06 58.09C58.13 58.09 58.19 58.09 58.26 58.09C58.93 57.05 60.12 56.23 60.99 55.36C61.36 54.99 61.74 54.38 62.26 54.19C62.59 54.19 62.91 54.19 63.24 54.19C64.16 55.09 65.16 55.91 66.07 56.82C66.48 57.24 66.84 57.88 67.44 58.09C67.44 54.38 67.44 50.67 67.44 46.96C65.8 47.22 63.94 48.49 61.58 47.94C60.48 47.68 59.01 47.07 58.06 46.96ZM19.2 56.73C18.47 56.71 17.77 56.21 17.44 56.34C17.19 56.62 17.08 57.13 16.75 57.31C15.56 57.99 14.85 57.01 14.31 56.43C14.22 53.5 15.41 51.29 16.66 49.6C17.61 48.29 19.09 49.16 19.59 50.28C20.26 50.07 20.69 50 21.44 50.18C21.63 50.47 22.01 50.72 22.12 51.06C22.12 52.62 22.12 54.19 22.12 55.75C22.19 55.75 22.26 55.75 22.32 55.75C22.32 55.68 22.32 55.62 22.32 55.55C22.83 54.86 22.66 53.98 23.39 53.5C23.68 53.26 24.02 53.21 24.57 53.21C25.06 53.65 25.42 53.72 25.74 54.38C26.23 54.06 26.71 53.73 27.2 53.41C27.66 53.2 28.19 53.19 28.67 53.02C28.91 52.37 29.18 51.87 30.04 51.84C30.2 51.74 30.62 51.79 30.82 51.94C31.32 52.1 31.68 52.55 31.7 53.21C32.18 54.25 30.47 56.13 29.64 56.34C29.1 56.47 28.76 56.08 28.28 56.34C27.6 56.69 27.05 57.53 26.32 57.9C25.79 58.17 24.99 58.06 24.47 58.39C23.61 59.31 23.5 60.46 21.64 60.44C21.49 60.27 21.32 60.29 21.15 60.14C20.23 59.38 19.39 58.19 19.2 56.73Z" />
		</g>
	</g>
</svg>