<svg xmlns="http://www.w3.org/2000/svg" viewBox="0 0 93 90" width="93" height="90">
	<style>
		tspan { white-space:pre }
		.shp0 { fill: #a4c58c } 
	</style>
	<g id="б6">
		<g id="01">
			<path id="new_vector_shape_done" fill-rule="evenodd" class="shp0" d="M59.57 1.25C59.9 1.25 60.23 1.25 60.55 1.25C60.71 1.44 60.72 1.3 60.94 1.45C61.24 1.64 61.38 2.07 61.62 2.32C61.73 8.12 60.12 11.89 57.72 15.12C57.22 15.79 56.72 16.57 56.06 17.07C55.17 17.74 54.29 18.44 53.32 19.02C52.91 19.28 52.33 19.32 52.05 19.71C51.81 20.06 51.77 20.49 51.57 20.88C50.84 22.27 50.25 23.69 49.52 25.18C47.97 28.3 46.29 31.76 45.22 35.23C45.28 35.23 45.35 35.23 45.41 35.23C46.12 34.18 47.33 33.26 48.34 32.5C49.05 31.96 49.67 31.18 50.39 30.64C52.24 29.28 54.09 28.08 56.06 26.84C57.36 26.02 58.52 24.71 60.55 24.69C61.04 25.28 61.55 25.37 61.62 26.44C61.03 27.26 60.92 28.34 60.45 29.28C59.19 31.83 58.18 34.69 57.04 37.38C57.13 37.38 57.23 37.38 57.33 37.38C57.71 36.61 59.43 35.58 60.16 35.04C62.33 33.43 64.24 31.37 66.41 29.77C67.13 29.23 69.25 27.91 69.54 27.13C69.7 26.69 69.23 25.27 69.44 24.39C69.82 22.77 70.23 21.33 71 20.1C72.36 17.92 74.64 16.34 77.35 15.51C81.17 14.33 85.77 16.91 87.21 18.83C88.02 19.9 88.89 21.16 89.36 22.54C91.56 28.98 86.22 34.15 81.74 35.43C79.98 35.93 78.16 35.29 76.57 35.23C75.88 36.1 74.08 36.83 73.64 37.77C75.26 37.77 77.09 38.36 78.52 38.75C82.35 39.8 87.54 40.61 89.36 43.53C89.95 44.48 89.75 46.42 89.75 47.93C89.75 52.94 90.19 55.05 86.62 56.72C86.71 61.02 85.38 64.88 84.09 67.95C80.16 77.23 73.06 86.01 62.7 88.75C56.91 88.75 51.11 88.75 45.32 88.75C39.98 88.75 34.64 88.75 29.3 88.75C28.02 88.37 26.58 87.97 25.39 87.38C16.98 83.24 10.75 75.89 7.33 66.78C6.51 64.59 6.14 62.19 5.57 59.75C5.51 58.74 5.44 57.73 5.37 56.72C5.11 56.59 4.85 56.46 4.59 56.33C3.9 55.84 3.09 55.1 2.64 54.37C1.85 53.09 2.25 48.9 2.25 46.85C2.25 46.01 2.25 45.16 2.25 44.32C2.67 42.93 3.86 42.19 4.98 41.48C8.44 39.31 13.05 38.69 17.68 37.58C19.34 37.18 21.04 37.28 22.66 36.89C23.28 36.75 24.23 36.98 24.52 36.5C23.6 35.49 23.28 33.78 22.76 32.4C21.59 29.32 20.97 25.9 20.02 22.44C19.96 21.82 19.89 21.2 19.83 20.59C19.34 18.56 18.91 16.84 21.68 16.87C22.21 17.32 23.09 17.21 23.83 17.46C25.62 18.07 27.49 18.76 29.11 19.61C35.27 22.84 39.47 27.73 41.02 35.62C41.25 35.62 41.48 35.62 41.7 35.62C44.37 30.88 42.12 23.88 40.43 20C33.78 19.8 29.15 16.36 26.37 12.19C25.49 10.86 24.12 9.19 24.12 7.11C24.4 6.8 24.45 6.47 24.81 6.23C25.28 5.85 26.29 5.92 27.15 5.94C28.92 5.97 30.79 6.31 32.23 6.72C37.01 8.06 40.64 9.91 42.29 14.34C42.6 15.16 42.67 16.2 42.87 17.07C42.87 17.43 42.87 17.79 42.87 18.14C43.4 19.46 44.3 20.9 44.83 22.34C45.08 23.02 45.35 25.48 45.8 25.76C45.88 25.24 46.2 24.87 46.39 24.49C46.8 23.67 46.94 22.86 47.37 22.05C47.89 21.04 48.71 19.86 49.12 18.83C49.12 18.08 49.12 17.33 49.12 16.58C49.59 14.55 49.62 12.51 50.3 10.72C51.48 7.59 53.51 4.8 56.06 3.01C56.66 2.59 57.45 2.12 58.11 1.84C58.62 1.61 59.19 1.59 59.57 1.25ZM58.11 5.35C57.55 6.19 56.38 6.59 55.77 7.4C54.16 9.54 52.49 12.16 52.45 15.8C52.51 15.8 52.58 15.8 52.64 15.8C53.26 15 54.37 14.57 54.98 13.75C56.57 11.64 58.26 8.9 58.3 5.35C58.24 5.35 58.17 5.35 58.11 5.35ZM39.55 16.78C39.4 11.9 33.13 9.7 28.32 9.16C28.32 9.19 28.32 9.22 28.32 9.26C28.29 9.26 28.26 9.26 28.23 9.26C28.23 9.32 28.23 9.39 28.23 9.45C28.54 9.7 28.58 10.1 28.81 10.43C29.28 11.09 29.87 11.72 30.37 12.38C31.83 14.31 36.27 16.62 39.55 16.78ZM76.47 19.02C76.63 20.03 77.37 20.91 77.84 21.66C79.31 24.03 80.71 25.7 83.01 27.23C83.5 27.55 85.49 29 85.94 28.59C86.85 27.47 86.75 24.63 86.23 23.22C85.26 20.53 83.98 19.39 81.06 18.63C80.53 18.49 79.32 18.24 78.52 18.44C77.85 18.6 77.15 18.91 76.47 19.02ZM22.95 20.59C22.98 22.48 23.82 25.3 24.32 26.93C25.92 32.13 27.32 37.02 30.96 40.12C31.57 40.64 32.11 41.47 32.82 41.87C33.24 42.12 33.75 42.04 34.18 42.27C34.72 42.54 35.1 43.06 35.75 43.24C35.75 43.18 35.75 43.11 35.75 43.05C35.07 42.2 34.81 40.99 34.28 40.02C33.08 37.81 31.63 35.6 30.18 33.57C29.31 32.36 27.25 30.75 27.25 28.89C27.86 28.23 27.95 27.79 29.3 27.81C31.89 30.41 34.05 33.61 36.04 36.8C36.47 37.49 37.69 40.42 38.19 40.7C38.19 39.73 38.19 38.75 38.19 37.77C37.92 37.34 38.14 36.7 37.99 36.11C37.6 34.53 37.3 32.8 36.62 31.43C34.55 27.21 31.49 24.51 27.35 22.34C26.13 21.71 24.59 20.68 22.95 20.59ZM83.6 31.13C82.59 30.95 81.78 30.17 81.06 29.67C79.14 28.32 77.43 26.77 76.08 24.88C75.61 24.23 74.36 21.43 73.73 21.27C73.45 22.3 72.86 23.22 72.56 24.49C72.38 25.29 72.62 26.4 72.76 26.93C73.53 29.83 74.65 31.15 77.35 32.11C78.06 32.36 79.43 32.77 80.57 32.5C81.71 32.23 82.63 31.7 83.6 31.43C83.6 31.33 83.6 31.23 83.6 31.13ZM56.35 30.25C55.38 31.24 53.97 31.88 52.84 32.7C50.05 34.69 47.2 37.58 45.22 40.41C44.09 42.02 42.92 43.76 42.87 46.46C42.91 46.46 42.94 46.46 42.97 46.46C42.97 46.5 42.97 46.53 42.97 46.56C50.59 45.11 51.75 41.72 54.4 35.43C55.09 33.79 56.08 32.01 56.55 30.25C56.48 30.25 56.42 30.25 56.35 30.25ZM44.44 51.25C46.16 51.27 48.37 51.49 49.91 51.15C50.59 51 51.52 51.34 52.05 51.05C52.33 50.91 52.58 50.46 52.84 50.27C54.02 49.4 55.09 48.4 56.25 47.54C59.65 45.02 62.81 42.25 66.21 39.73C66.62 39.43 67.71 38.64 67.97 38.26C68.19 37.95 68.24 37.57 68.56 37.38C68.9 37.18 69.32 37.21 69.63 36.99C70.5 36.39 71.22 35.48 72.07 34.84C72.56 34.48 73.41 34.08 73.64 33.48C72.65 33.14 71.25 31.29 70.8 30.35C69.31 31.22 68.16 32.66 66.8 33.67C62.69 36.72 58.98 40.18 54.89 43.24C53.22 44.48 51.87 46.23 50.1 47.34C48.31 48.47 46.4 48.77 44.24 49.59C44.41 50.05 44.44 50.59 44.44 51.25ZM25.2 39.73C24.73 40 24.07 39.77 23.44 39.92C22.1 40.24 20.59 40.15 19.14 40.51C15.8 41.33 12.31 41.77 9.38 42.85C8.2 43.29 5.86 43.7 5.47 44.8C5.07 45.55 8.28 47.28 9.48 46.95C11.83 46.31 14.61 45.99 17.19 45.39C17.52 45.39 17.84 45.39 18.17 45.39C19.91 44.99 22.09 45.01 23.83 44.61C24.19 44.61 24.55 44.61 24.91 44.61C26.06 44.34 27.59 44.29 28.71 44.02C29.39 43.86 29.91 44.14 30.28 43.73C29 42.97 27.23 41.01 26.47 39.73C26.05 39.73 25.62 39.73 25.2 39.73ZM70.32 40.41C69.75 40.98 69.02 41.39 68.36 41.87C67.75 42.33 67.22 42.98 66.61 43.44C66.2 43.74 65.66 43.94 65.43 44.41C65.79 44.41 66.15 44.41 66.51 44.41C67.33 44.92 70.29 44.71 71.49 45C73.69 45.53 76.11 45.54 78.32 46.17C79.51 46.51 80.97 46.99 82.13 47.25C83.22 47.49 86.53 45.73 86.62 44.8C86.4 44.54 86.17 44.28 85.94 44.02C84.5 43.14 82.85 43.04 81.06 42.46C77.85 41.42 73.98 40.87 70.32 40.41ZM61.92 47.15C61.36 47.67 60.68 48.06 60.06 48.52C59.62 48.84 59.23 49.36 58.79 49.69C58.33 50.03 57.59 50.32 57.33 50.86C58.01 50.86 58.7 50.86 59.38 50.86C60.19 50.37 63.34 50.74 64.55 50.47C65.72 50.21 67.08 50.37 68.36 50.08C70.59 49.57 73.08 49.45 75.3 49C75.3 48.97 75.3 48.94 75.3 48.91C75.2 48.87 75.1 48.84 75 48.81C74.23 48.34 72.72 48.57 71.68 48.32C69.45 47.79 66.7 47.86 64.36 47.34C63.49 47.15 62.63 47.39 61.92 47.15ZM24.12 47.73C23.67 48.02 23.01 47.78 22.37 47.93C20.53 48.35 18.02 48.69 16.02 48.71C16.02 48.78 16.02 48.84 16.02 48.91C18.2 49.23 20.38 49.56 22.56 49.88C23.11 49.07 24.54 48.48 24.91 47.73C24.65 47.73 24.39 47.73 24.12 47.73ZM32.82 48.32C32.49 48.53 32.12 48.39 31.64 48.52C30.56 48.8 29.34 49.05 28.32 49.49C26.01 50.49 24.15 52.16 23.15 54.47C22.84 55.18 22.95 55.79 22.76 56.62C22.58 57.36 22.32 59.01 22.56 60.04C22.76 60.86 22.92 62.02 23.15 62.77C23.58 64.22 23.81 65.47 24.32 66.68C24.52 67.16 24.45 67.71 24.91 67.95C25.36 66.49 26.63 65.22 27.45 64.04C29.84 60.61 32.26 57.19 35.65 54.77C36.47 54.17 37.6 53.57 38.58 53.2C39.27 52.94 39.87 52.9 40.43 52.52C40.73 52.16 41.02 51.8 41.31 51.45C41.37 50.31 41.04 48.67 40.04 48.61C39.22 49.26 37.25 49.74 36.23 50.27C33.91 51.49 31.46 53.27 29.98 55.35C28.98 56.76 29.14 59.04 26.76 59.06C26.16 58.38 25.67 58.41 25.69 57.01C26.18 56.45 26.27 55.51 26.66 54.86C27.15 54.06 27.76 53.27 28.32 52.52C28.9 51.75 30.56 50.26 31.35 49.69C31.93 49.27 32.98 48.97 33.3 48.32C33.14 48.32 32.98 48.32 32.82 48.32ZM5.37 48.91C5.36 50.29 5.23 51.99 5.47 53.2C7.52 54.36 9.67 55.09 12.11 55.94C13.3 56.35 14.61 56.4 15.73 56.72C16.18 56.85 19.32 57.22 19.34 57.21C19.69 56.78 19.46 56.21 19.63 55.55C19.88 54.64 20.29 53.71 20.51 52.81C20.48 52.81 20.45 52.81 20.41 52.81C20.41 52.78 20.41 52.75 20.41 52.71C19 52.69 17.53 52.35 16.31 52.03C15.76 51.97 15.21 51.9 14.65 51.84C12.62 51.28 10.43 50.99 8.5 50.27C7.47 49.89 6.43 49.12 5.37 48.91ZM86.43 48.91C86.06 49.24 85.66 49.24 85.16 49.49C83.18 50.48 80.67 50.96 78.32 51.64C77.73 51.81 77.38 51.67 76.76 51.84C74.77 52.36 72.3 52.5 70.22 53.01C69.27 53.07 68.33 53.14 67.39 53.2C65.94 53.54 63.98 53.45 62.5 53.79C61.89 53.79 61.27 53.79 60.65 53.79C59.79 53.98 58.51 53.88 57.62 54.08C57 54.08 56.38 54.08 55.77 54.08C54.97 54.26 53.75 53.98 52.84 54.18C50.19 54.76 45.81 54.37 42.78 54.37C41.88 55.49 40.55 55.65 39.16 56.33C38.43 56.69 37.75 57.24 37.11 57.7C36.65 58.03 35.95 58.3 35.75 58.87C36.66 58.87 37.57 58.87 38.48 58.87C39.13 59.28 40.56 58.78 41.41 58.96C42.29 59.15 43.59 59.06 44.63 59.06C46.55 59.06 48.47 59.06 50.39 59.06C51.25 59.05 52.61 59.05 53.42 58.87C55 58.52 56.8 58.98 58.21 58.67C59.2 58.45 60.31 58.66 61.14 58.48C61.69 58.48 62.24 58.48 62.8 58.48C64.27 58.15 66.15 58.22 67.58 57.89C68.99 57.57 70.31 57.83 71.68 57.5C74.18 56.89 76.98 56.64 79.3 55.94C79.8 55.79 80.07 55.89 80.57 55.74C82.11 55.27 83.73 54.65 85.06 53.98C85.65 53.69 86.29 53.64 86.53 53.01C86.84 52.51 86.64 49.74 86.62 48.91C86.56 48.91 86.49 48.91 86.43 48.91ZM8.7 58.09C8.35 59.16 8.99 61.24 9.28 62.19C9.7 63.56 9.78 64.73 10.26 66C11 67.93 12.05 69.77 12.99 71.46C16.59 77.93 21.99 83.29 29.69 85.62C35.78 85.62 41.87 85.62 47.95 85.62C52.74 85.62 57.52 85.62 62.31 85.62C70.8 83.04 76.37 76.9 80.08 69.51C81.69 66.3 83.07 62.68 83.4 58.18C83.37 58.18 83.34 58.18 83.3 58.18C83.3 58.15 83.3 58.12 83.3 58.09C80.64 59.2 77.33 59.49 74.32 60.23C73.12 60.53 72.12 60.34 70.9 60.62C68.41 61.21 65.39 61.02 62.8 61.6C62.28 61.6 61.76 61.6 61.23 61.6C59.83 61.91 57.93 61.86 56.45 61.99C55.6 61.99 54.76 61.99 53.91 61.99C52.18 62.37 49.45 62.19 47.46 62.19C44.37 62.15 41.28 62.12 38.19 62.09C37.43 61.92 36.24 62.19 35.36 61.99C34.6 61.83 33.72 61.8 32.82 61.8C32.27 62.76 31.39 63.54 30.77 64.43C29.82 65.77 29.1 67.13 28.23 68.53C27.9 69.07 27.36 69.64 27.05 70.2C26.34 71.49 26.19 73.15 24.12 73.12C22.18 71.15 21.18 67.4 20.22 64.43C19.94 63.56 19.93 61.13 19.54 60.53C19.54 60.49 19.54 60.46 19.54 60.43C17.52 60.42 14.92 59.75 13.19 59.26C11.59 58.8 10.06 58.72 8.7 58.09ZM72.07 63.75C72.4 63.75 72.73 63.75 73.05 63.75C73.21 63.94 73.22 63.8 73.44 63.94C73.74 64.14 73.88 64.57 74.12 64.82C74.16 66.78 73.18 68.93 72.56 70.39C70.51 75.27 68.45 78.99 63.87 81.33C62.66 81.95 59.91 83 57.72 82.5C55.57 82.01 53.61 81.62 51.86 80.74C51.27 80.44 50.62 79.77 50 79.57C49.29 79.57 48.57 79.57 47.86 79.57C45.07 78.95 39.71 78.98 39.75 75.76C40.36 75.11 40.45 74.66 41.8 74.69C42.78 75.83 47.79 76.78 50.1 76.35C50.64 74.91 53.07 73.42 54.3 72.54C58.08 69.82 62.51 67.75 67 65.7C68.33 65.1 69.73 64.69 71 64.14C71.44 63.95 71.77 64.03 72.07 63.75ZM70.02 67.85C69.18 68.57 67.73 68.7 66.7 69.22C63.88 70.63 60.97 71.92 58.4 73.52C57.37 74.16 55.86 74.68 55.18 75.66C55.34 75.66 55.51 75.66 55.67 75.66C56.08 75.36 56.66 75.44 57.23 75.27C58.43 74.91 59.38 74.4 60.84 74.49C61.05 74.77 61.37 75.12 61.62 75.37C61.66 76.07 61.59 76.33 61.43 76.93C59.93 77.84 57.79 78.33 55.86 78.79C55.86 78.85 55.86 78.92 55.86 78.98C56.59 79.02 57.29 79.21 57.91 79.37C59.09 79.69 60.75 79.25 61.53 78.98C65.09 77.74 66.75 75.6 68.36 72.44C68.87 71.45 69.37 70.28 69.83 69.22C69.95 68.93 70.22 68.06 70.12 67.95C70.12 67.92 70.12 67.88 70.12 67.85C70.09 67.85 70.06 67.85 70.02 67.85Z" />
		</g>
	</g>
</svg>